<svg version="1.1" xmlns="http://www.w3.org/2000/svg" xmlns:xlink="http://www.w3.org/1999/xlink" x="0px" y="0px"
	 viewBox="0 0 299.35 299.35" style="enable-background:new 0 0 299.35 299.35;" xml:space="preserve">
<g>
	<path d="M125.707,28.43c-1.176-0.949-2.715-1.317-4.193-0.999L38.62,45.247c-2.304,0.495-3.949,2.532-3.949,4.888v83.487
		c0,2.761,2.238,5,5,5h82.894c2.762,0,5-2.239,5-5V32.32C127.564,30.809,126.882,29.38,125.707,28.43z"/>
	<path d="M259.679,160.728h-105c-2.762,0-5,2.239-5,5v106.055c0,2.357,1.646,4.393,3.949,4.888l105,22.567
		c0.349,0.075,0.7,0.112,1.051,0.112c1.133,0,2.244-0.385,3.143-1.111c1.175-0.949,1.857-2.379,1.857-3.889V165.728
		C264.679,162.967,262.441,160.728,259.679,160.728z"/>
	<path d="M262.822,1.111c-1.176-0.949-2.714-1.317-4.193-0.999l-105,22.567c-2.304,0.495-3.949,2.532-3.949,4.888v106.055
		c0,2.761,2.238,5,5,5h105c2.762,0,5-2.239,5-5V5C264.679,3.49,263.997,2.06,262.822,1.111z"/>
	<path d="M122.564,160.728H39.671c-2.762,0-5,2.239-5,5v83.487c0,2.356,1.646,4.393,3.949,4.888l82.894,17.816
		c0.348,0.075,0.7,0.112,1.051,0.112c1.133,0,2.244-0.385,3.143-1.111c1.175-0.949,1.857-2.378,1.857-3.889V165.728
		C127.564,162.967,125.326,160.728,122.564,160.728z"/>
</svg>
